# xmcd
#
# Track frame offsets:
# 150
# 4250
# 16578
# 41683
# 54403
# 64415
# 75898
# 98523
# 123555
# 134233
# 156170
# 170328
# 188535
# 194428
# 220835
# 229160
# 255670
# 273370
# 296423
# 311988
#
# Disc length: 4344 seconds
#
#
# Revision: 3
# Processed by: cddbd v1.5.2PL0 Copyright (c) Steve Scherf et al.
# Submitted via: FreeRIP 2.90 
#
DISCID=1610f614
DTITLE=McCullough-D2005 - 1776c
DYEAR=2005
DGENRE=Speech
TTITLE0=01
TTITLE1=02
TTITLE2=03
TTITLE3=04
TTITLE4=05
TTITLE5=06
TTITLE6=07
TTITLE7=08
TTITLE8=09
TTITLE9=10
TTITLE10=11
TTITLE11=12
TTITLE12=13
TTITLE13=14
TTITLE14=15
TTITLE15=16
TTITLE16=17
TTITLE17=18
TTITLE18=19
TTITLE19=20
EXTD=1976 by and ready by David McCullough\nRecorded Books  973.3\nLargo 3 2396 00464 4005
EXTT0=
EXTT1=
EXTT2=
EXTT3=
EXTT4=
EXTT5=
EXTT6=
EXTT7=
EXTT8=
EXTT9=
EXTT10=
EXTT11=
EXTT12=
EXTT13=
EXTT14=
EXTT15=
EXTT16=
EXTT17=
EXTT18=
EXTT19=
PLAYORDER=
